<?xml version="1.0" encoding="UTF-8" standalone="no"?> <svg xmlns="http://www.w3.org/2000/svg" xmlns:xlink="http://www.w3.org/1999/xlink" xmlns:serif="http://www.serif.com/" width="100%" height="100%" viewBox="0 0 1991 443" version="1.1" xml:space="preserve" style="fill-rule:evenodd;clip-rule:evenodd;stroke-linejoin:round;stroke-miterlimit:2;"> <g id="wizard-logo-primary" transform="matrix(1,0,0,1,-1684.26,-1088.19)"> <rect x="1684.26" y="1088.19" width="1990.23" height="442.179" style="fill:none;"></rect> <clipPath id="_clip1"> <rect x="1684.26" y="1088.19" width="1990.23" height="442.179"></rect> </clipPath> <g clip-path="url(#_clip1)"> <g transform="matrix(4.16667,0,0,4.16667,2566.48,1343.16)"> <path d="M0,-59.474L-12.806,-59.474L-29.579,-17.201L-35.306,-57.681C-35.449,-58.628 -36.018,-59.474 -37.37,-59.474L-48.9,-59.474L-65.238,-16.73L-71.655,-57.681C-71.822,-58.748 -72.332,-59.474 -73.771,-59.474L-92.961,-59.474C-94.314,-59.474 -94.578,-58 -92.949,-57.705C-89.246,-57.033 -86.065,-54.813 -85.001,-48.546L-76.879,-2.772C-76.57,-1.032 -75.607,0 -73.415,0L-58.977,0L-44.954,-38.104L-40.493,-2.772C-40.272,-1.029 -39.352,0 -37.16,0L-22.647,0L1.15,-57.433C1.524,-58.369 1.553,-59.474 0,-59.474" style="fill:rgb(0,48,87);fill-rule:nonzero;"></path> </g> <g transform="matrix(4.16667,0,0,4.16667,3006.5,1187.67)"> <path d="M0,15.16L9.73,-7.084L15.112,15.16L0,15.16ZM17.259,-22.157L-5.503,-22.157C-6.857,-22.157 -7.113,-20.683 -5.682,-20.388C-2.666,-19.763 0.705,-16.539 -1.734,-11.421L-23.637,34.545C-24.499,36.29 -24.179,37.317 -21.988,37.317L-9.695,37.317L-5.141,26.912L17.955,26.912L19.803,34.545C20.197,36.291 21.259,37.317 23.45,37.317L35.799,37.317L19.951,-20.053C19.533,-21.417 18.898,-22.157 17.259,-22.157" style="fill:rgb(0,48,87);fill-rule:nonzero;"></path> </g> <g transform="matrix(4.16667,0,0,4.16667,3314.42,1213.33)"> <path d="M0,2.842L-13.858,2.842L-11.63,-15.841L-1.682,-15.841C5.753,-15.841 7.25,-13.189 7.25,-7.595C7.25,-1.079 4.959,2.842 0,2.842M22.129,-8.46C22.129,-26.394 10.512,-28.316 -2.752,-28.316L-32.101,-28.316C-33.455,-28.316 -33.748,-26.842 -32.192,-26.546C-28.651,-25.875 -25.538,-23.339 -26.266,-17.242L-31.703,28.386C-31.942,30.131 -31.253,31.158 -29.062,31.158L-17.233,31.158L-15.296,14.921L-3.709,14.921L3.54,28.386C4.497,30.163 5.811,31.158 8.004,31.158L20.572,31.158L10.393,12.248C19.395,7.992 22.129,-0.641 22.129,-8.46" style="fill:rgb(0,48,87);fill-rule:nonzero;"></path> </g> <g transform="matrix(4.16667,0,0,4.16667,3526.75,1149.18)"> <path d="M0,33.638L-6.417,33.638L-2.354,-0.443L5.066,-0.443C16.769,-0.443 20.125,4.631 20.125,12.424C20.125,26.14 13.033,33.638 0,33.638M4.152,-12.918L-22.826,-12.918C-24.179,-12.918 -24.473,-11.444 -22.917,-11.148C-19.376,-10.477 -16.264,-7.947 -16.991,-1.844L-22.428,43.784C-22.667,45.529 -21.978,46.556 -19.787,46.556L-1.039,46.556C20.513,46.556 35.522,33.83 35.522,12.309C35.522,-3.203 26.7,-12.918 4.152,-12.918" style="fill:rgb(0,48,87);fill-rule:nonzero;"></path> </g> <g transform="matrix(4.16667,0,0,4.16667,2907.04,1335.7)"> <path d="M0,-55.894C0.172,-57.012 -0.491,-57.684 -1.549,-57.684L-47.076,-57.684L-48.231,-47.981C-48.44,-46.234 -47.782,-45.209 -45.591,-45.209L-20.437,-45.209L-52.844,-9.278L-53.833,-0.982C-54.044,0.791 -53.384,1.79 -51.191,1.79L-6.26,1.79L-4.933,-9.338C-4.804,-10.513 -5.424,-11.128 -6.482,-11.128L-33.202,-11.128L-1.125,-46.552L0,-55.894Z" style="fill:rgb(0,48,87);fill-rule:nonzero;"></path> </g> <g transform="matrix(4.16667,0,0,4.16667,2660.34,1343.16)"> <path d="M0,-59.474L-13.055,-59.474L-19.813,-2.772C-20.053,-1.027 -19.364,0 -17.171,0L-5.342,0L1.549,-57.684C1.72,-58.802 1.058,-59.474 0,-59.474" style="fill:rgb(0,48,87);fill-rule:nonzero;"></path> </g> <g transform="matrix(4.16667,0,0,4.16667,2249.65,1464.09)"> <path d="M0,-11.106C2.139,-11.106 3.806,-10.33 5,-8.78C6.195,-7.228 6.792,-5.053 6.792,-2.25C6.792,0.561 6.187,2.751 4.978,4.317C3.768,5.883 2.087,6.667 -0.063,6.667C-2.234,6.667 -3.919,5.886 -5.118,4.325L-5.367,4.325L-6.033,6.357L-8.763,6.357L-8.763,-17.773L-5.118,-17.773L-5.118,-12.037C-5.118,-11.612 -5.14,-10.982 -5.18,-10.145C-5.222,-9.308 -5.253,-8.774 -5.273,-8.547L-5.118,-8.547C-3.96,-10.252 -2.254,-11.106 0,-11.106M-0.946,-8.128C-2.414,-8.128 -3.471,-7.696 -4.118,-6.833C-4.764,-5.969 -5.098,-4.525 -5.118,-2.5L-5.118,-2.25C-5.118,-0.161 -4.788,1.349 -4.126,2.286C-3.465,3.221 -2.383,3.689 -0.885,3.689C0.408,3.689 1.388,3.177 2.055,2.154C2.721,1.13 3.054,-0.348 3.054,-2.282C3.054,-6.18 1.721,-8.128 -0.946,-8.128" style="fill:rgb(0,48,87);fill-rule:nonzero;"></path> </g> <g transform="matrix(4.16667,0,0,4.16667,2284.74,1522.36)"> <path d="M0,-24.781L3.971,-24.781L7.46,-15.058C7.986,-13.674 8.338,-12.37 8.513,-11.15L8.637,-11.15C8.731,-11.719 8.901,-12.409 9.149,-13.22C9.398,-14.033 10.711,-17.886 13.088,-24.781L17.027,-24.781L9.692,-5.351C8.358,-1.783 6.136,0 3.024,0C2.216,0 1.431,-0.087 0.666,-0.263L0.666,-3.148C1.214,-3.023 1.84,-2.962 2.543,-2.962C4.301,-2.962 5.535,-3.98 6.25,-6.016L6.885,-7.629L0,-24.781Z" style="fill:rgb(0,48,87);fill-rule:nonzero;"></path> </g> <g transform="matrix(4.16667,0,0,4.16667,2465.08,1462.02)"> <path d="M0,-8.965C0,-6.598 -0.776,-4.782 -2.325,-3.522C-3.876,-2.26 -6.084,-1.63 -8.948,-1.63L-11.305,-1.63L-11.305,6.854L-15.011,6.854L-15.011,-15.819L-8.482,-15.819C-5.65,-15.819 -3.528,-15.239 -2.116,-14.082C-0.705,-12.924 0,-11.217 0,-8.965M-11.305,-4.747L-9.336,-4.747C-7.434,-4.747 -6.038,-5.076 -5.148,-5.739C-4.259,-6.4 -3.815,-7.435 -3.815,-8.841C-3.815,-10.143 -4.212,-11.115 -5.009,-11.756C-5.805,-12.397 -7.045,-12.717 -8.731,-12.717L-11.305,-12.717L-11.305,-4.747Z" style="fill:rgb(0,48,87);fill-rule:nonzero;"></path> </g> <g transform="matrix(4.16667,0,0,4.16667,2510.76,1417.81)"> <path d="M0,17.773C-2.668,17.773 -4.753,16.996 -6.258,15.439C-7.762,13.883 -8.513,11.741 -8.513,9.012C-8.513,6.209 -7.815,4.007 -6.42,2.405C-5.025,0.802 -3.107,0 -0.665,0C1.598,0 3.385,0.689 4.699,2.064C6.012,3.438 6.668,5.33 6.668,7.739L6.668,9.709L-4.761,9.709C-4.71,11.373 -4.26,12.653 -3.41,13.547C-2.564,14.441 -1.371,14.889 0.17,14.889C1.184,14.889 2.127,14.792 3.002,14.602C3.875,14.41 4.813,14.093 5.816,13.648L5.816,16.609C4.926,17.034 4.026,17.334 3.117,17.509C2.206,17.686 1.168,17.773 0,17.773M-0.665,2.762C-1.825,2.762 -2.752,3.128 -3.45,3.863C-4.148,4.597 -4.565,5.666 -4.7,7.072L3.086,7.072C3.065,5.657 2.723,4.583 2.062,3.855C1.401,3.125 0.491,2.762 -0.665,2.762" style="fill:rgb(0,48,87);fill-rule:nonzero;"></path> </g> <g transform="matrix(4.16667,0,0,4.16667,2600.52,1419.1)"> <path d="M0,17.153L-0.73,14.764L-0.853,14.764C-1.681,15.808 -2.512,16.52 -3.35,16.897C-4.187,17.274 -5.264,17.463 -6.575,17.463C-8.262,17.463 -9.576,17.007 -10.522,16.098C-11.469,15.189 -11.941,13.901 -11.941,12.237C-11.941,10.469 -11.285,9.135 -9.971,8.235C-8.659,7.337 -6.659,6.845 -3.971,6.762L-1.007,6.67L-1.007,5.754C-1.007,4.658 -1.265,3.839 -1.777,3.296C-2.288,2.754 -3.08,2.482 -4.157,2.482C-5.035,2.482 -5.877,2.611 -6.684,2.87C-7.492,3.128 -8.266,3.433 -9.01,3.784L-10.189,1.179C-9.26,0.695 -8.242,0.325 -7.135,0.07C-6.028,-0.183 -4.983,-0.31 -4.002,-0.31C-1.82,-0.31 -0.173,0.167 0.938,1.118C2.048,2.07 2.605,3.563 2.605,5.6L2.605,17.153L0,17.153ZM-5.428,14.671C-4.105,14.671 -3.042,14.301 -2.242,13.562C-1.44,12.824 -1.04,11.788 -1.04,10.454L-1.04,8.964L-3.242,9.057C-4.957,9.118 -6.205,9.407 -6.986,9.919C-7.768,10.43 -8.157,11.213 -8.157,12.268C-8.157,13.033 -7.93,13.625 -7.475,14.043C-7.02,14.462 -6.339,14.671 -5.428,14.671" style="fill:rgb(0,48,87);fill-rule:nonzero;"></path> </g> <g transform="matrix(4.16667,0,0,4.16667,2668.83,1490.58)"> <path d="M0,-17.463C0.736,-17.463 1.342,-17.411 1.816,-17.307L1.461,-13.912C0.942,-14.036 0.404,-14.097 -0.155,-14.097C-1.615,-14.097 -2.797,-13.621 -3.702,-12.67C-4.607,-11.719 -5.059,-10.483 -5.059,-8.964L-5.059,0L-8.702,0L-8.702,-17.152L-5.849,-17.152L-5.367,-14.128L-5.183,-14.128C-4.614,-15.152 -3.872,-15.964 -2.957,-16.563C-2.042,-17.161 -1.056,-17.463 0,-17.463" style="fill:rgb(0,48,87);fill-rule:nonzero;"></path> </g> <g transform="matrix(4.16667,0,0,4.16667,2737.65,1439.46)"> <path d="M0,7.383C0,9.057 -0.609,10.342 -1.829,11.236C-3.05,12.132 -4.796,12.578 -7.07,12.578C-9.356,12.578 -11.192,12.231 -12.576,11.538L-12.576,8.39C-10.56,9.321 -8.683,9.787 -6.947,9.787C-4.704,9.787 -3.582,9.11 -3.582,7.756C-3.582,7.32 -3.706,6.96 -3.953,6.668C-4.201,6.38 -4.611,6.08 -5.18,5.77C-5.748,5.46 -6.538,5.109 -7.553,4.715C-9.526,3.95 -10.863,3.186 -11.561,2.42C-12.259,1.654 -12.607,0.662 -12.607,-0.558C-12.607,-2.025 -12.015,-3.165 -10.831,-3.977C-9.649,-4.788 -8.038,-5.195 -6,-5.195C-3.985,-5.195 -2.078,-4.785 -0.279,-3.97L-1.458,-1.224C-3.309,-1.989 -4.864,-2.372 -6.126,-2.372C-8.048,-2.372 -9.008,-1.823 -9.008,-0.728C-9.008,-0.19 -8.758,0.265 -8.257,0.636C-7.757,1.009 -6.662,1.521 -4.977,2.171C-3.562,2.72 -2.533,3.222 -1.892,3.677C-1.251,4.131 -0.774,4.657 -0.465,5.25C-0.155,5.845 0,6.555 0,7.383" style="fill:rgb(0,48,87);fill-rule:nonzero;"></path> </g> <g transform="matrix(4.16667,0,0,4.16667,2817.45,1454.97)"> <path d="M0,-0.063C0,2.74 -0.719,4.926 -2.156,6.496C-3.593,8.07 -5.593,8.855 -8.157,8.855C-9.759,8.855 -11.176,8.493 -12.406,7.769C-13.636,7.045 -14.582,6.006 -15.244,4.652C-15.907,3.298 -16.236,1.726 -16.236,-0.063C-16.236,-2.843 -15.523,-5.014 -14.096,-6.575C-12.671,-8.136 -10.66,-8.918 -8.065,-8.918C-5.583,-8.918 -3.619,-8.119 -2.171,-6.521C-0.724,-4.924 0,-2.771 0,-0.063M-12.484,-0.063C-12.484,3.897 -11.021,5.877 -8.096,5.877C-5.201,5.877 -3.754,3.897 -3.754,-0.063C-3.754,-3.981 -5.212,-5.939 -8.127,-5.939C-9.657,-5.939 -10.765,-5.433 -11.454,-4.421C-12.141,-3.407 -12.484,-1.954 -12.484,-0.063" style="fill:rgb(0,48,87);fill-rule:nonzero;"></path> </g> <g transform="matrix(4.16667,0,0,4.16667,2897.77,1417.81)"> <path d="M0,17.463L-3.66,17.463L-3.66,6.917C-3.66,5.594 -3.927,4.606 -4.459,3.955C-4.992,3.305 -5.836,2.978 -6.995,2.978C-8.534,2.978 -9.661,3.433 -10.376,4.342C-11.089,5.253 -11.445,6.777 -11.445,8.918L-11.445,17.463L-15.091,17.463L-15.091,0.311L-12.236,0.311L-11.725,2.559L-11.538,2.559C-11.021,1.744 -10.288,1.112 -9.336,0.667C-8.384,0.223 -7.331,0 -6.173,0C-2.058,0 0,2.095 0,6.281L0,17.463Z" style="fill:rgb(0,48,87);fill-rule:nonzero;"></path> </g> <g transform="matrix(4.16667,0,0,4.16667,1698.07,1385.48)"> <path d="M0,0.099L-0.038,0C-0.026,0.033 -0.012,0.066 0,0.099" style="fill:white;fill-rule:nonzero;"></path> </g> <g transform="matrix(4.16667,0,0,4.16667,2015.71,1425.68)"> <path d="M0,-46.71C-2.114,-51.164 -6.854,-55.066 -13.691,-55.066C-26.077,-55.066 -35.827,-50.923 -48.006,-50.923C-52.93,-50.923 -56.165,-52.138 -57.704,-53.643C-57.923,-53.857 -58.19,-53.688 -58.174,-53.41C-58.08,-51.824 -57.446,-49.855 -55.786,-48.299C-62.636,-46.843 -69.825,-47.45 -69.825,-53.323C-69.825,-57.82 -66.294,-63.608 -60.293,-68.724C-71.618,-59.318 -78.955,-45.291 -79.441,-29.537C-79.322,-29.266 -79.187,-29.002 -79.031,-28.754C-76.497,-24.857 -71.795,-25.043 -61.531,-27.787C-60.9,-27.956 -60.938,-27.464 -61.351,-27.272C-66.913,-24.694 -75.081,-18.586 -75.832,-9.709L-75.833,-9.709C-75.862,-9.369 -75.877,-9.024 -75.877,-8.675L-75.877,-8.643C-72.882,-0.943 -68.154,5.891 -62.154,11.361C-64.895,8.538 -65.224,5.799 -65.224,4.104C-65.224,-2.424 -56.874,-13.547 -30.373,-19.03C-29.964,-19.114 -29.712,-18.696 -30.21,-18.516C-43.832,-13.621 -62.068,-1.028 -59.474,11.924C-59.32,12.773 -59.024,13.574 -58.617,14.306C-54.37,17.555 -49.616,20.149 -44.499,22.007L-44.499,22.014C-50.136,19.931 -51.667,17.593 -51.667,14.491C-51.667,-2.842 -4.917,-27.641 7.151,-27.641C10.882,-27.641 12.765,-26.224 14.001,-23.477C14.222,-22.986 14.759,-23.142 14.98,-23.543C16.401,-26.122 16.978,-29.01 16.978,-31.185C16.978,-40.471 8.908,-47.413 0,-46.71" style="fill:white;fill-rule:nonzero;"></path> </g> <g transform="matrix(4.16667,0,0,4.16667,1876.98,1508.18)"> <path d="M0,-22.761C-7.019,-17.304 -11.857,-10.458 -11.857,-6.277C-11.857,-3.188 -9.567,-0.704 -3.272,0.421C-2.932,0.482 -2.765,0.144 -2.984,-0.125C-5.092,-2.703 -5.545,-4.974 -5.545,-8.157C-5.545,-11.734 -3.751,-17.22 0.425,-22.288C0.898,-22.861 0.621,-23.243 0,-22.761" style="fill:white;fill-rule:nonzero;"></path> </g> <g transform="matrix(4.16667,0,0,4.16667,1878.75,1203.61)"> <path d="M0,50.809C-4.176,55.877 -5.97,61.363 -5.97,64.94C-5.97,68.122 -5.517,70.394 -3.41,72.972C-3.19,73.241 -3.357,73.578 -3.697,73.517C-9.992,72.393 -12.282,69.908 -12.282,66.82C-12.282,62.639 -7.444,55.792 -0.425,50.336C0.196,49.854 0.473,50.235 0,50.809M6.453,-27.657C-18.179,-27.657 -36.954,-10.404 -36.954,-0.027C-36.954,5.846 -29.765,6.453 -22.915,4.996C-24.575,3.441 -25.209,1.472 -25.303,-0.114C-25.319,-0.392 -25.053,-0.562 -24.833,-0.347C-23.295,1.158 -20.059,2.373 -15.135,2.373C-2.956,2.373 6.794,-1.77 19.18,-1.77C26.017,-1.77 30.757,2.132 32.871,6.586C41.779,5.883 49.849,12.825 49.849,22.11C49.849,24.286 49.271,27.174 47.85,29.753C47.629,30.154 47.092,30.31 46.872,29.818C45.636,27.072 43.752,25.655 40.022,25.655C27.954,25.655 -18.796,50.454 -18.796,67.787C-18.796,71.254 -16.9,73.768 -9.475,76.037C-5.153,77.357 0.314,78.466 6.453,78.466C35.758,78.466 59.515,54.71 59.515,25.404C59.515,-3.901 35.758,-27.657 6.453,-27.657" style="fill:rgb(237,28,36);fill-rule:nonzero;"></path> </g> <g transform="matrix(4.16667,0,0,4.16667,1987.37,1246.07)"> <path d="M0,-1.7C-0.436,-2.569 -1.726,-4.129 -4.452,-4.129C-8.079,-4.129 -13.098,0.025 -13.688,0.554C-13.753,0.615 -13.793,0.702 -13.793,0.798C-13.793,0.984 -13.642,1.135 -13.455,1.135C-13.393,1.135 -13.334,1.118 -13.284,1.088C-12.942,0.921 -11.111,0.04 -8.924,-0.689C-8.855,-0.714 -8.782,-0.729 -8.704,-0.729C-8.413,-0.729 -8.168,-0.531 -8.097,-0.262C-7.867,0.832 -7.132,1.724 -6.09,2.006C-4.529,2.429 -2.87,1.321 -2.385,-0.47C-2.326,-0.69 -2.287,-0.911 -2.267,-1.129C-2.26,-1.196 -2.229,-1.255 -2.186,-1.301C-1.981,-1.449 -1.114,-1.362 -0.78,-1.173C-0.752,-1.154 -0.723,-1.138 -0.697,-1.118C-0.619,-1.06 -0.522,-1.025 -0.417,-1.025C-0.159,-1.025 0.05,-1.233 0.05,-1.491C0.05,-1.566 0.031,-1.637 0,-1.7" style="fill:rgb(228,29,45);fill-rule:nonzero;"></path> </g> <g transform="matrix(4.16667,0,0,4.16667,1699.74,1307.07)"> <path d="M0,18.758C-0.029,19.098 -0.044,19.443 -0.044,19.792L-0.044,19.859L-0.458,18.767C-3.158,11.557 -3.735,4.252 -3.641,-0.164L-3.624,-1.101C-3.502,-0.818 -3.36,-0.546 -3.198,-0.287C-0.664,3.61 4.038,3.423 14.302,0.679C14.933,0.51 14.895,1.003 14.482,1.194C8.921,3.773 0.752,9.88 0.001,18.758" style="fill:rgb(228,29,45);fill-rule:nonzero;"></path> </g> <g transform="matrix(4.16667,0,0,4.16667,1771.51,1346.04)"> <path d="M0,33.442C-0.413,32.704 -0.711,31.895 -0.867,31.038C-3.461,18.086 14.775,5.494 28.397,0.599C28.895,0.419 28.643,0 28.234,0.085C1.733,5.567 -6.617,16.69 -6.617,23.219C-6.617,25.164 -6.187,28.485 -2.168,31.73L0,33.442Z" style="fill:rgb(228,29,45);fill-rule:nonzero;"></path> </g> </g> </g> </svg> 